<svg version="1.1" id="Layer_1" xmlns="http://www.w3.org/2000/svg" xmlns:xlink="http://www.w3.org/1999/xlink" x="0px" y="0px"
	 width="100%" viewBox="0 0 816 736" enable-background="new 0 0 816 736" xml:space="preserve">
<path fill="#FFFFFF" opacity="1.000000" stroke="none"
	d="
M473.748474,553.930176
	C472.282135,543.125122 470.968170,532.743713 469.383392,522.403870
	C468.451660,516.324707 466.434418,515.755798 461.591003,519.836975
	C460.444275,520.803223 459.340973,521.821533 458.185059,522.776306
	C452.180023,527.736267 446.721954,527.534119 440.928436,521.837158
	C431.542236,512.607300 422.280792,503.250519 412.972076,493.941925
	C377.975739,458.946320 342.978546,423.951538 307.988586,388.949554
	C299.660431,380.618561 299.554443,375.901093 307.332092,367.223297
	C309.072815,365.281128 311.306610,363.644806 311.986420,360.577728
	C307.496338,358.045197 302.406738,358.219788 297.623474,357.497742
	C276.265594,354.273712 254.863846,351.340393 233.478378,348.299042
	C228.778336,347.630615 225.331116,345.215332 223.924011,340.625305
	C222.415741,335.705292 223.967255,331.587738 227.650558,327.970184
	C259.274902,296.910400 296.321869,274.979858 338.619476,261.860260
	C361.298157,254.825943 384.564453,251.167572 408.243103,250.035873
	C411.336609,249.888016 413.476501,248.624039 415.523132,246.403534
	C455.928070,202.566299 504.138214,170.020920 559.043213,147.092529
	C585.567993,136.015747 612.927734,127.829300 641.232544,122.993851
	C659.941040,119.797798 678.826355,118.032478 697.858826,118.672928
	C705.179138,118.919258 709.174927,123.252968 709.354004,130.893127
	C710.294312,171.009171 702.584290,209.657974 689.426514,247.342178
	C673.000488,294.386780 648.679321,337.007599 616.913086,375.366608
	C605.960510,388.592224 594.480652,401.380249 581.405334,412.560059
	C576.909546,416.404053 577.776978,421.395355 577.506531,425.906769
	C574.171143,481.555389 555.200562,531.301636 521.646179,575.640503
	C515.301514,584.024353 508.249115,591.800049 501.015350,599.408936
	C497.359802,603.253967 492.960052,605.477234 487.554230,603.683289
	C482.431458,601.983398 480.168610,598.190735 479.472473,592.805237
	C477.812531,579.963562 475.710510,567.178955 473.748474,553.930176
M529.697327,224.178085
	C511.948669,239.388779 505.266510,261.813934 512.430725,282.124146
	C520.015869,303.627655 538.573303,317.472473 561.030396,317.950928
	C582.972595,318.418427 599.396912,308.519836 609.303467,289.287445
	C618.926331,270.605896 617.410645,251.848145 605.121765,234.621384
	C587.589478,210.044342 553.111511,205.983536 529.697327,224.178085
z"/>
<path fill="#FFFFFF" opacity="1.000000" stroke="none"
	d="
M220.898529,546.030212
	C228.113937,527.502380 235.577698,509.543579 245.019257,492.408783
	C258.878265,467.257050 287.145538,457.765930 307.556335,460.028809
	C342.442230,463.896515 360.957306,488.170013 366.330811,510.742920
	C372.752258,537.718079 362.499237,570.536865 328.511963,587.031555
	C298.593292,601.551636 267.453094,612.698242 235.995575,623.140869
	C228.100082,625.761902 220.170105,628.297607 212.180374,630.611450
	C201.809311,633.614929 194.350479,626.353516 197.367172,615.946228
	C204.181320,592.437927 212.232819,569.332581 220.898529,546.030212
z"/>
</svg>